<?xml version="1.0" encoding="UTF-8" standalone="no"?>
<!DOCTYPE svg PUBLIC "-//W3C//DTD SVG 1.1//EN"
 "http://www.w3.org/Graphics/SVG/1.1/DTD/svg11.dtd">
<!-- Generated by graphviz version 2.40.1 (20161225.0304)
 -->
<!-- Title: %3 Pages: 1 -->
<svg width="1112pt" height="979pt"
 viewBox="0.00 0.00 1112.26 978.94" xmlns="http://www.w3.org/2000/svg" xmlns:xlink="http://www.w3.org/1999/xlink">
<g id="graph0" class="graph" transform="scale(1 1) rotate(0) translate(4 974.9395)">
<title>%3</title>
<polygon fill="#ffffff" stroke="transparent" points="-4,4 -4,-974.9395 1108.2598,-974.9395 1108.2598,4 -4,4"/>
<!-- 75 -->
<g id="node1" class="node">
<title>75</title>
<g id="a_node1"><a xlink:title="/usr/local/lib/python3.7/site&#45;packages/numpy&#45;1.16.0.dev0+45718fd&#45;py3.7&#45;macosx&#45;10.14&#45;x86_64.egg/numpy/core/overrides.py">
<polygon fill="#0c738d" stroke="#0c738d" points="410.3677,-243.9824 190.4135,-243.9824 190.4135,-189.9902 410.3677,-189.9902 410.3677,-243.9824"/>
<text text-anchor="middle" x="300.3906" y="-231.9844" font-family="Arial" font-size="10.00" fill="#ffffff">overrides:15:get_overloaded_types_and_args</text>
<text text-anchor="middle" x="300.3906" y="-220.4854" font-family="Arial" font-size="10.00" fill="#ffffff">20.04%</text>
<text text-anchor="middle" x="300.3906" y="-208.9863" font-family="Arial" font-size="10.00" fill="#ffffff">(12.57%)</text>
<text text-anchor="middle" x="300.3906" y="-197.4873" font-family="Arial" font-size="10.00" fill="#ffffff">1610883×</text>
</a>
</g>
</g>
<!-- 84 -->
<g id="node2" class="node">
<title>84</title>
<g id="a_node2"><a xlink:title="/usr/local/lib/python3.7/site&#45;packages/numpy&#45;1.16.0.dev0+45718fd&#45;py3.7&#45;macosx&#45;10.14&#45;x86_64.egg/numpy/lib/shape_base.py">
<polygon fill="#0d3b80" stroke="#0d3b80" points="557.5098,-243.9824 419.2714,-243.9824 419.2714,-189.9902 557.5098,-189.9902 557.5098,-243.9824"/>
<text text-anchor="middle" x="488.3906" y="-231.9844" font-family="Arial" font-size="10.00" fill="#ffffff">shape_base:711:array_split</text>
<text text-anchor="middle" x="488.3906" y="-220.4854" font-family="Arial" font-size="10.00" fill="#ffffff">10.08%</text>
<text text-anchor="middle" x="488.3906" y="-208.9863" font-family="Arial" font-size="10.00" fill="#ffffff">(2.45%)</text>
<text text-anchor="middle" x="488.3906" y="-197.4873" font-family="Arial" font-size="10.00" fill="#ffffff">100000×</text>
</a>
</g>
</g>
<!-- 1209 -->
<g id="node3" class="node">
<title>1209</title>
<g id="a_node3"><a xlink:title="/usr/local/lib/python3.7/site&#45;packages/numpy&#45;1.16.0.dev0+45718fd&#45;py3.7&#45;macosx&#45;10.14&#45;x86_64.egg/numpy/core/overrides.py">
<polygon fill="#0bab3e" stroke="#0bab3e" points="756.7946,-148.9883 631.9866,-148.9883 631.9866,-94.9961 756.7946,-94.9961 756.7946,-148.9883"/>
<text text-anchor="middle" x="694.3906" y="-136.9902" font-family="Arial" font-size="10.00" fill="#ffffff">overrides:148:public_api</text>
<text text-anchor="middle" x="694.3906" y="-125.4912" font-family="Arial" font-size="10.00" fill="#ffffff">41.98%</text>
<text text-anchor="middle" x="694.3906" y="-113.9922" font-family="Arial" font-size="10.00" fill="#ffffff">(3.79%)</text>
<text text-anchor="middle" x="694.3906" y="-102.4932" font-family="Arial" font-size="10.00" fill="#ffffff">1610883×</text>
</a>
</g>
</g>
<!-- 84&#45;&gt;1209 -->
<g id="edge1" class="edge">
<title>84&#45;&gt;1209</title>
<path fill="none" stroke="#0d2e7c" stroke-width=".5" d="M532.6459,-189.8504C551.0057,-179.1826 572.7553,-167.2901 593.1816,-157.9902 604.5071,-152.8339 616.8046,-147.9199 628.798,-143.4722"/>
<polygon fill="#0d2e7c" stroke="#0d2e7c" stroke-width=".5" points="629.3103,-144.589 632.1716,-142.2303 628.4639,-142.2899 629.3103,-144.589"/>
<text text-anchor="middle" x="611.9951" y="-172.9883" font-family="Arial" font-size="10.00" fill="#0d2e7c">7.48%</text>
<text text-anchor="middle" x="611.9951" y="-161.4893" font-family="Arial" font-size="10.00" fill="#0d2e7c">400000×</text>
</g>
<!-- 1212 -->
<g id="node14" class="node">
<title>1212</title>
<g id="a_node14"><a xlink:title="/usr/local/lib/python3.7/site&#45;packages/numpy&#45;1.16.0.dev0+45718fd&#45;py3.7&#45;macosx&#45;10.14&#45;x86_64.egg/numpy/core/overrides.py">
<polygon fill="#0ba651" stroke="#0ba651" points="621.5842,-369.9746 355.1971,-369.9746 355.1971,-315.9824 621.5842,-315.9824 621.5842,-369.9746"/>
<text text-anchor="middle" x="488.3906" y="-357.9766" font-family="Arial" font-size="10.00" fill="#ffffff">overrides:64:array_function_implementation_or_override</text>
<text text-anchor="middle" x="488.3906" y="-346.4775" font-family="Arial" font-size="10.00" fill="#ffffff">38.72%</text>
<text text-anchor="middle" x="488.3906" y="-334.9785" font-family="Arial" font-size="10.00" fill="#ffffff">(3.70%)</text>
<text text-anchor="middle" x="488.3906" y="-323.4795" font-family="Arial" font-size="10.00" fill="#ffffff">1610883×</text>
</a>
</g>
</g>
<!-- 1209&#45;&gt;1212 -->
<g id="edge9" class="edge">
<title>1209&#45;&gt;1212</title>
<path fill="none" stroke="#0ba651" stroke-width="1.55" d="M693.4165,-149.2534C691.9844,-179.9151 688.649,-227.5733 681.3906,-243.9844 666.2379,-278.2445 657.3169,-287.3827 625.3906,-306.9805 621.7999,-309.1846 618.0761,-311.255 614.2532,-313.1996"/>
<polygon fill="#0ba651" stroke="#0ba651" stroke-width="1.55" points="613.2095,-311.2942 608.5853,-315.9597 615.1096,-315.1962 613.2095,-311.2942"/>
<text text-anchor="middle" x="712.0337" y="-220.4854" font-family="Arial" font-size="10.00" fill="#0ba651">38.72%</text>
<text text-anchor="middle" x="712.0337" y="-208.9863" font-family="Arial" font-size="10.00" fill="#0ba651">1110883×</text>
</g>
<!-- 88 -->
<g id="node4" class="node">
<title>88</title>
<g id="a_node4"><a xlink:title="src/population.py">
<polygon fill="#0c8290" stroke="#0c8290" points="840.5259,-306.9785 704.2554,-306.9785 704.2554,-252.9863 840.5259,-252.9863 840.5259,-306.9785"/>
<text text-anchor="middle" x="772.3906" y="-294.9805" font-family="Arial" font-size="10.00" fill="#ffffff">population:70:buildNetwork</text>
<text text-anchor="middle" x="772.3906" y="-283.4814" font-family="Arial" font-size="10.00" fill="#ffffff">22.36%</text>
<text text-anchor="middle" x="772.3906" y="-271.9824" font-family="Arial" font-size="10.00" fill="#ffffff">(3.87%)</text>
<text text-anchor="middle" x="772.3906" y="-260.4834" font-family="Arial" font-size="10.00" fill="#ffffff">100000×</text>
</a>
</g>
</g>
<!-- 88&#45;&gt;1209 -->
<g id="edge2" class="edge">
<title>88&#45;&gt;1209</title>
<path fill="none" stroke="#0c6089" stroke-width=".67" d="M762.4363,-252.8575C761.3379,-249.8635 760.236,-246.8594 759.1816,-243.9844 750.3813,-219.9877 750.92,-212.7997 739.3906,-189.9883 732.9673,-177.2793 724.6437,-164.0592 716.9051,-152.6921"/>
<polygon fill="#0c6089" stroke="#0c6089" stroke-width=".67" points="718.029,-151.7937 714.525,-149.2264 715.6632,-153.4185 718.029,-151.7937"/>
<text text-anchor="middle" x="777.9951" y="-220.4854" font-family="Arial" font-size="10.00" fill="#0c6089">16.78%</text>
<text text-anchor="middle" x="777.9951" y="-208.9863" font-family="Arial" font-size="10.00" fill="#0c6089">200000×</text>
</g>
<!-- 643 -->
<g id="node5" class="node">
<title>643</title>
<g id="a_node5"><a xlink:title="~">
<polygon fill="#ff0000" stroke="#ff0000" points="894.4268,-970.9375 726.3545,-970.9375 726.3545,-916.9453 894.4268,-916.9453 894.4268,-970.9375"/>
<text text-anchor="middle" x="810.3906" y="-958.9395" font-family="Arial" font-size="10.00" fill="#ffffff">~:0:&lt;built&#45;in method builtins.exec&gt;</text>
<text text-anchor="middle" x="810.3906" y="-947.4404" font-family="Arial" font-size="10.00" fill="#ffffff">100.00%</text>
<text text-anchor="middle" x="810.3906" y="-935.9414" font-family="Arial" font-size="10.00" fill="#ffffff">(0.01%)</text>
<text text-anchor="middle" x="810.3906" y="-924.4424" font-family="Arial" font-size="10.00" fill="#ffffff">363×</text>
</a>
</g>
</g>
<!-- 1024 -->
<g id="node6" class="node">
<title>1024</title>
<g id="a_node6"><a xlink:title="src/mainProfiling.py">
<polygon fill="#ff0000" stroke="#ff0000" points="875.2897,-875.9434 745.4916,-875.9434 745.4916,-821.9512 875.2897,-821.9512 875.2897,-875.9434"/>
<text text-anchor="middle" x="810.3906" y="-863.9453" font-family="Arial" font-size="10.00" fill="#ffffff">mainProfiling:1:&lt;module&gt;</text>
<text text-anchor="middle" x="810.3906" y="-852.4463" font-family="Arial" font-size="10.00" fill="#ffffff">100.00%</text>
<text text-anchor="middle" x="810.3906" y="-840.9473" font-family="Arial" font-size="10.00" fill="#ffffff">(0.00%)</text>
<text text-anchor="middle" x="810.3906" y="-829.4482" font-family="Arial" font-size="10.00" fill="#ffffff">1×</text>
</a>
</g>
</g>
<!-- 643&#45;&gt;1024 -->
<g id="edge3" class="edge">
<title>643&#45;&gt;1024</title>
<path fill="none" stroke="#ff0000" stroke-width="4" d="M810.3906,-916.7199C810.3906,-907.2797 810.3906,-896.5239 810.3906,-886.4051"/>
<polygon fill="#ff0000" stroke="#ff0000" stroke-width="4" points="813.8907,-886.1727 810.3906,-876.1727 806.8907,-886.1728 813.8907,-886.1727"/>
<text text-anchor="middle" x="830.1294" y="-899.9434" font-family="Arial" font-size="10.00" fill="#ff0000">100.00%</text>
<text text-anchor="middle" x="830.1294" y="-888.4443" font-family="Arial" font-size="10.00" fill="#ff0000">1×</text>
</g>
<!-- 1197 -->
<g id="node9" class="node">
<title>1197</title>
<g id="a_node9"><a xlink:title="src/mainProfiling.py">
<polygon fill="#fc1100" stroke="#fc1100" points="863.4871,-780.9492 757.2942,-780.9492 757.2942,-726.957 863.4871,-726.957 863.4871,-780.9492"/>
<text text-anchor="middle" x="810.3906" y="-768.9512" font-family="Arial" font-size="10.00" fill="#ffffff">mainProfiling:8:main</text>
<text text-anchor="middle" x="810.3906" y="-757.4521" font-family="Arial" font-size="10.00" fill="#ffffff">98.33%</text>
<text text-anchor="middle" x="810.3906" y="-745.9531" font-family="Arial" font-size="10.00" fill="#ffffff">(0.00%)</text>
<text text-anchor="middle" x="810.3906" y="-734.4541" font-family="Arial" font-size="10.00" fill="#ffffff">1×</text>
</a>
</g>
</g>
<!-- 1024&#45;&gt;1197 -->
<g id="edge5" class="edge">
<title>1024&#45;&gt;1197</title>
<path fill="none" stroke="#fc1100" stroke-width="3.93" d="M810.3906,-821.7258C810.3906,-812.1861 810.3906,-801.3032 810.3906,-791.0917"/>
<polygon fill="#fc1100" stroke="#fc1100" stroke-width="3.93" points="813.8557,-791.0786 810.3906,-781.1786 806.9257,-791.0786 813.8557,-791.0786"/>
<text text-anchor="middle" x="827.3486" y="-804.9492" font-family="Arial" font-size="10.00" fill="#fc1100">98.33%</text>
<text text-anchor="middle" x="827.3486" y="-793.4502" font-family="Arial" font-size="10.00" fill="#fc1100">1×</text>
</g>
<!-- 676 -->
<g id="node7" class="node">
<title>676</title>
<g id="a_node7"><a xlink:title="/usr/local/lib/python3.7/site&#45;packages/numpy&#45;1.16.0.dev0+45718fd&#45;py3.7&#45;macosx&#45;10.14&#45;x86_64.egg/numpy/core/_methods.py">
<polygon fill="#0d4281" stroke="#0d4281" points="1044.0626,-53.9941 936.7186,-53.9941 936.7186,-.002 1044.0626,-.002 1044.0626,-53.9941"/>
<text text-anchor="middle" x="990.3906" y="-41.9961" font-family="Arial" font-size="10.00" fill="#ffffff">_methods:58:_mean</text>
<text text-anchor="middle" x="990.3906" y="-30.4971" font-family="Arial" font-size="10.00" fill="#ffffff">11.38%</text>
<text text-anchor="middle" x="990.3906" y="-18.998" font-family="Arial" font-size="10.00" fill="#ffffff">(3.75%)</text>
<text text-anchor="middle" x="990.3906" y="-7.499" font-family="Arial" font-size="10.00" fill="#ffffff">300100×</text>
</a>
</g>
</g>
<!-- 773 -->
<g id="node8" class="node">
<title>773</title>
<g id="a_node8"><a xlink:title="/usr/local/lib/python3.7/site&#45;packages/numpy&#45;1.16.0.dev0+45718fd&#45;py3.7&#45;macosx&#45;10.14&#45;x86_64.egg/numpy/lib/shape_base.py">
<polygon fill="#0d4482" stroke="#0d4482" points="676.4083,-243.9824 566.373,-243.9824 566.373,-189.9902 676.4083,-189.9902 676.4083,-243.9824"/>
<text text-anchor="middle" x="621.3906" y="-231.9844" font-family="Arial" font-size="10.00" fill="#ffffff">shape_base:771:split</text>
<text text-anchor="middle" x="621.3906" y="-220.4854" font-family="Arial" font-size="10.00" fill="#ffffff">11.86%</text>
<text text-anchor="middle" x="621.3906" y="-208.9863" font-family="Arial" font-size="10.00" fill="#ffffff">(0.29%)</text>
<text text-anchor="middle" x="621.3906" y="-197.4873" font-family="Arial" font-size="10.00" fill="#ffffff">100000×</text>
</a>
</g>
</g>
<!-- 773&#45;&gt;1209 -->
<g id="edge4" class="edge">
<title>773&#45;&gt;1209</title>
<path fill="none" stroke="#0d4282" stroke-width=".5" d="M630.4798,-189.9002C634.8267,-179.2996 640.7296,-167.4424 648.1816,-157.9902 649.8265,-155.9039 651.6169,-153.8685 653.5059,-151.8953"/>
<polygon fill="#0d4282" stroke="#0d4282" stroke-width=".5" points="654.5416,-152.591 656.1387,-149.2443 652.8032,-150.8645 654.5416,-152.591"/>
<text text-anchor="middle" x="666.9951" y="-172.9883" font-family="Arial" font-size="10.00" fill="#0d4282">11.51%</text>
<text text-anchor="middle" x="666.9951" y="-161.4893" font-family="Arial" font-size="10.00" fill="#0d4282">100000×</text>
</g>
<!-- 1743 -->
<g id="node13" class="node">
<title>1743</title>
<g id="a_node13"><a xlink:title="src/cosyne.py">
<polygon fill="#fc1100" stroke="#fc1100" points="857.1615,-685.9551 763.6197,-685.9551 763.6197,-631.9629 857.1615,-631.9629 857.1615,-685.9551"/>
<text text-anchor="middle" x="810.3906" y="-673.957" font-family="Arial" font-size="10.00" fill="#ffffff">cosyne:28:evolve</text>
<text text-anchor="middle" x="810.3906" y="-662.458" font-family="Arial" font-size="10.00" fill="#ffffff">98.33%</text>
<text text-anchor="middle" x="810.3906" y="-650.959" font-family="Arial" font-size="10.00" fill="#ffffff">(13.03%)</text>
<text text-anchor="middle" x="810.3906" y="-639.46" font-family="Arial" font-size="10.00" fill="#ffffff">100×</text>
</a>
</g>
</g>
<!-- 1197&#45;&gt;1743 -->
<g id="edge8" class="edge">
<title>1197&#45;&gt;1743</title>
<path fill="none" stroke="#fc1100" stroke-width="3.93" d="M810.3906,-726.7316C810.3906,-717.192 810.3906,-706.309 810.3906,-696.0975"/>
<polygon fill="#fc1100" stroke="#fc1100" stroke-width="3.93" points="813.8557,-696.0844 810.3906,-686.1845 806.9257,-696.0845 813.8557,-696.0844"/>
<text text-anchor="middle" x="827.3486" y="-709.9551" font-family="Arial" font-size="10.00" fill="#fc1100">98.33%</text>
<text text-anchor="middle" x="827.3486" y="-698.4561" font-family="Arial" font-size="10.00" fill="#fc1100">100×</text>
</g>
<!-- 1196 -->
<g id="node10" class="node">
<title>1196</title>
<g id="a_node10"><a xlink:title="src/evaluators.py">
<polygon fill="#47c208" stroke="#47c208" points="937.5162,-369.9746 821.265,-369.9746 821.265,-315.9824 937.5162,-315.9824 937.5162,-369.9746"/>
<text text-anchor="middle" x="879.3906" y="-357.9766" font-family="Arial" font-size="10.00" fill="#ffffff">evaluators:30:evaluate</text>
<text text-anchor="middle" x="879.3906" y="-346.4775" font-family="Arial" font-size="10.00" fill="#ffffff">58.46%</text>
<text text-anchor="middle" x="879.3906" y="-334.9785" font-family="Arial" font-size="10.00" fill="#ffffff">(4.61%)</text>
<text text-anchor="middle" x="879.3906" y="-323.4795" font-family="Arial" font-size="10.00" fill="#ffffff">100000×</text>
</a>
</g>
</g>
<!-- 1224 -->
<g id="node11" class="node">
<title>1224</title>
<g id="a_node11"><a xlink:title="src/neural_network.py">
<polygon fill="#0c9a80" stroke="#0c9a80" points="937.7897,-243.9824 802.9916,-243.9824 802.9916,-189.9902 937.7897,-189.9902 937.7897,-243.9824"/>
<text text-anchor="middle" x="870.3906" y="-231.9844" font-family="Arial" font-size="10.00" fill="#ffffff">neural_network:60:forward</text>
<text text-anchor="middle" x="870.3906" y="-220.4854" font-family="Arial" font-size="10.00" fill="#ffffff">29.60%</text>
<text text-anchor="middle" x="870.3906" y="-208.9863" font-family="Arial" font-size="10.00" fill="#ffffff">(4.87%)</text>
<text text-anchor="middle" x="870.3906" y="-197.4873" font-family="Arial" font-size="10.00" fill="#ffffff">300000×</text>
</a>
</g>
</g>
<!-- 1196&#45;&gt;1224 -->
<g id="edge6" class="edge">
<title>1196&#45;&gt;1224</title>
<path fill="none" stroke="#0c9a80" stroke-width="1.18" d="M877.4599,-315.95C876.0813,-296.6511 874.2189,-270.5794 872.7518,-250.0408"/>
<polygon fill="#0c9a80" stroke="#0c9a80" stroke-width="1.18" points="874.6193,-249.6564 872.3492,-244.4049 870.8489,-249.9258 874.6193,-249.6564"/>
<text text-anchor="middle" x="895.9951" y="-283.4814" font-family="Arial" font-size="10.00" fill="#0c9a80">29.60%</text>
<text text-anchor="middle" x="895.9951" y="-271.9824" font-family="Arial" font-size="10.00" fill="#0c9a80">300000×</text>
</g>
<!-- 1253 -->
<g id="node12" class="node">
<title>1253</title>
<g id="a_node12"><a xlink:title="src/helpers.py">
<polygon fill="#0c748d" stroke="#0c748d" points="1034.0904,-243.9824 946.6909,-243.9824 946.6909,-189.9902 1034.0904,-189.9902 1034.0904,-243.9824"/>
<text text-anchor="middle" x="990.3906" y="-231.9844" font-family="Arial" font-size="10.00" fill="#ffffff">helpers:23:rmse</text>
<text text-anchor="middle" x="990.3906" y="-220.4854" font-family="Arial" font-size="10.00" fill="#ffffff">20.16%</text>
<text text-anchor="middle" x="990.3906" y="-208.9863" font-family="Arial" font-size="10.00" fill="#ffffff">(5.66%)</text>
<text text-anchor="middle" x="990.3906" y="-197.4873" font-family="Arial" font-size="10.00" fill="#ffffff">300000×</text>
</a>
</g>
</g>
<!-- 1196&#45;&gt;1253 -->
<g id="edge7" class="edge">
<title>1196&#45;&gt;1253</title>
<path fill="none" stroke="#0c748d" stroke-width=".81" d="M908.8196,-315.8412C911.7686,-312.9031 914.674,-309.9143 917.3906,-306.9805 934.7999,-288.1793 952.956,-265.8097 966.8063,-248.0764"/>
<polygon fill="#0c748d" stroke="#0c748d" stroke-width=".81" points="968.3521,-248.6547 969.8728,-244.136 965.8661,-246.7201 968.3521,-248.6547"/>
<text text-anchor="middle" x="980.9951" y="-283.4814" font-family="Arial" font-size="10.00" fill="#0c748d">20.16%</text>
<text text-anchor="middle" x="980.9951" y="-271.9824" font-family="Arial" font-size="10.00" fill="#0c748d">300000×</text>
</g>
<!-- 1224&#45;&gt;1209 -->
<g id="edge15" class="edge">
<title>1224&#45;&gt;1209</title>
<path fill="none" stroke="#0c8f93" stroke-width=".97" d="M821.2703,-189.9777C802.8338,-179.8869 781.6777,-168.3627 762.3906,-157.9902 758.4165,-155.853 754.3071,-153.6529 750.1673,-151.4439"/>
<polygon fill="#0c8f93" stroke="#0c8f93" stroke-width=".97" points="750.7992,-149.8373 745.6683,-149.0459 749.1858,-152.8642 750.7992,-149.8373"/>
<text text-anchor="middle" x="822.9951" y="-172.9883" font-family="Arial" font-size="10.00" fill="#0c8f93">24.33%</text>
<text text-anchor="middle" x="822.9951" y="-161.4893" font-family="Arial" font-size="10.00" fill="#0c8f93">900000×</text>
</g>
<!-- 1252 -->
<g id="node17" class="node">
<title>1252</title>
<g id="a_node17"><a xlink:title="~">
<polygon fill="#0d4582" stroke="#0d4582" points="1104.1291,-148.9883 876.6522,-148.9883 876.6522,-94.9961 1104.1291,-94.9961 1104.1291,-148.9883"/>
<text text-anchor="middle" x="990.3906" y="-136.9902" font-family="Arial" font-size="10.00" fill="#ffffff">~:0:&lt;method &#39;mean&#39; of &#39;numpy.ndarray&#39; objects&gt;</text>
<text text-anchor="middle" x="990.3906" y="-125.4912" font-family="Arial" font-size="10.00" fill="#ffffff">11.99%</text>
<text text-anchor="middle" x="990.3906" y="-113.9922" font-family="Arial" font-size="10.00" fill="#ffffff">(0.63%)</text>
<text text-anchor="middle" x="990.3906" y="-102.4932" font-family="Arial" font-size="10.00" fill="#ffffff">300000×</text>
</a>
</g>
</g>
<!-- 1253&#45;&gt;1252 -->
<g id="edge17" class="edge">
<title>1253&#45;&gt;1252</title>
<path fill="none" stroke="#0d4582" stroke-width=".5" d="M990.3906,-189.7648C990.3906,-178.2378 990.3906,-164.7494 990.3906,-152.8542"/>
<polygon fill="#0d4582" stroke="#0d4582" stroke-width=".5" points="991.6157,-152.7176 990.3906,-149.2177 989.1657,-152.7177 991.6157,-152.7176"/>
<text text-anchor="middle" x="1009.9951" y="-172.9883" font-family="Arial" font-size="10.00" fill="#0d4582">11.99%</text>
<text text-anchor="middle" x="1009.9951" y="-161.4893" font-family="Arial" font-size="10.00" fill="#0d4582">300000×</text>
</g>
<!-- 1274 -->
<g id="node18" class="node">
<title>1274</title>
<g id="a_node18"><a xlink:title="src/evaluators.py">
<polygon fill="#e3aa04" stroke="#e3aa04" points="877.8092,-590.9609 742.972,-590.9609 742.972,-536.9687 877.8092,-536.9687 877.8092,-590.9609"/>
<text text-anchor="middle" x="810.3906" y="-578.9629" font-family="Arial" font-size="10.00" fill="#ffffff">evaluators:22:evaluatePop</text>
<text text-anchor="middle" x="810.3906" y="-567.4639" font-family="Arial" font-size="10.00" fill="#ffffff">81.41%</text>
<text text-anchor="middle" x="810.3906" y="-555.9648" font-family="Arial" font-size="10.00" fill="#ffffff">(0.01%)</text>
<text text-anchor="middle" x="810.3906" y="-544.4658" font-family="Arial" font-size="10.00" fill="#ffffff">100×</text>
</a>
</g>
</g>
<!-- 1743&#45;&gt;1274 -->
<g id="edge20" class="edge">
<title>1743&#45;&gt;1274</title>
<path fill="none" stroke="#e3aa04" stroke-width="3.26" d="M810.3906,-631.7375C810.3906,-621.9991 810.3906,-610.8608 810.3906,-600.4661"/>
<polygon fill="#e3aa04" stroke="#e3aa04" stroke-width="3.26" points="813.5407,-600.1903 810.3906,-591.1903 807.2407,-600.1904 813.5407,-600.1903"/>
<text text-anchor="middle" x="827.3486" y="-614.9609" font-family="Arial" font-size="10.00" fill="#e3aa04">81.41%</text>
<text text-anchor="middle" x="827.3486" y="-603.4619" font-family="Arial" font-size="10.00" fill="#e3aa04">100×</text>
</g>
<!-- 1212&#45;&gt;75 -->
<g id="edge10" class="edge">
<title>1212&#45;&gt;75</title>
<path fill="none" stroke="#0c738d" stroke-width=".8" d="M448.0599,-315.95C417.6825,-295.5919 376.0593,-267.6973 344.7448,-246.7112"/>
<polygon fill="#0c738d" stroke="#0c738d" stroke-width=".8" points="345.5936,-245.3841 340.9786,-244.1872 343.8399,-248.0008 345.5936,-245.3841"/>
<text text-anchor="middle" x="454.7759" y="-283.4814" font-family="Arial" font-size="10.00" fill="#0c738d">20.04%</text>
<text text-anchor="middle" x="454.7759" y="-271.9824" font-family="Arial" font-size="10.00" fill="#0c738d">1610883×</text>
</g>
<!-- 1212&#45;&gt;84 -->
<g id="edge11" class="edge">
<title>1212&#45;&gt;84</title>
<path fill="none" stroke="#0d3b80" stroke-width=".5" d="M488.3906,-315.95C488.3906,-295.9913 488.3906,-268.7888 488.3906,-247.9542"/>
<polygon fill="#0d3b80" stroke="#0d3b80" stroke-width=".5" points="489.6157,-247.9048 488.3906,-244.4049 487.1657,-247.9049 489.6157,-247.9048"/>
<text text-anchor="middle" x="507.9951" y="-283.4814" font-family="Arial" font-size="10.00" fill="#0d3b80">10.08%</text>
<text text-anchor="middle" x="507.9951" y="-271.9824" font-family="Arial" font-size="10.00" fill="#0d3b80">100000×</text>
</g>
<!-- 1212&#45;&gt;773 -->
<g id="edge12" class="edge">
<title>1212&#45;&gt;773</title>
<path fill="none" stroke="#0d4482" stroke-width=".5" d="M519.8845,-315.6341C523.1167,-312.7363 526.3338,-309.8136 529.3906,-306.9805 550.6323,-287.2926 573.9504,-264.4691 591.7959,-246.7332"/>
<polygon fill="#0d4482" stroke="#0d4482" stroke-width=".5" points="592.7709,-247.4912 594.3882,-244.1543 591.043,-245.7543 592.7709,-247.4912"/>
<text text-anchor="middle" x="603.9951" y="-283.4814" font-family="Arial" font-size="10.00" fill="#0d4482">11.86%</text>
<text text-anchor="middle" x="603.9951" y="-271.9824" font-family="Arial" font-size="10.00" fill="#0d4482">100000×</text>
</g>
<!-- 1218 -->
<g id="node15" class="node">
<title>1218</title>
<g id="a_node15"><a xlink:title="/usr/local/lib/python3.7/site&#45;packages/numpy&#45;1.16.0.dev0+45718fd&#45;py3.7&#45;macosx&#45;10.14&#45;x86_64.egg/numpy/core/multiarray.py">
<polygon fill="#0d2b7c" stroke="#0d2b7c" points="181.4297,-243.9824 85.3516,-243.9824 85.3516,-189.9902 181.4297,-189.9902 181.4297,-243.9824"/>
<text text-anchor="middle" x="133.3906" y="-231.9844" font-family="Arial" font-size="10.00" fill="#ffffff">multiarray:689:dot</text>
<text text-anchor="middle" x="133.3906" y="-220.4854" font-family="Arial" font-size="10.00" fill="#ffffff">6.83%</text>
<text text-anchor="middle" x="133.3906" y="-208.9863" font-family="Arial" font-size="10.00" fill="#ffffff">(1.14%)</text>
<text text-anchor="middle" x="133.3906" y="-197.4873" font-family="Arial" font-size="10.00" fill="#ffffff">900000×</text>
</a>
</g>
</g>
<!-- 1212&#45;&gt;1218 -->
<g id="edge13" class="edge">
<title>1212&#45;&gt;1218</title>
<path fill="none" stroke="#0d2b7c" stroke-width=".5" d="M354.7585,-319.0082C340.9222,-315.4457 327.1793,-311.4454 314.1816,-306.9805 254.2944,-286.4084 243.0015,-272.3551 186.3906,-243.9844 185.9002,-243.7386 185.4073,-243.4914 184.9122,-243.2429"/>
<polygon fill="#0d2b7c" stroke="#0d2b7c" stroke-width=".5" points="185.2941,-242.0639 181.6168,-241.5864 184.1937,-244.2529 185.2941,-242.0639"/>
<text text-anchor="middle" x="332.9951" y="-283.4814" font-family="Arial" font-size="10.00" fill="#0d2b7c">6.83%</text>
<text text-anchor="middle" x="332.9951" y="-271.9824" font-family="Arial" font-size="10.00" fill="#0d2b7c">900000×</text>
</g>
<!-- 1286 -->
<g id="node16" class="node">
<title>1286</title>
<g id="a_node16"><a xlink:title="~">
<polygon fill="#0d267a" stroke="#0d267a" points="266.672,-148.9883 .1093,-148.9883 .1093,-94.9961 266.672,-94.9961 266.672,-148.9883"/>
<text text-anchor="middle" x="133.3906" y="-136.9902" font-family="Arial" font-size="10.00" fill="#ffffff">~:0:&lt;built&#45;in method numpy.core._multiarray_umath.dot&gt;</text>
<text text-anchor="middle" x="133.3906" y="-125.4912" font-family="Arial" font-size="10.00" fill="#ffffff">5.70%</text>
<text text-anchor="middle" x="133.3906" y="-113.9922" font-family="Arial" font-size="10.00" fill="#ffffff">(5.70%)</text>
<text text-anchor="middle" x="133.3906" y="-102.4932" font-family="Arial" font-size="10.00" fill="#ffffff">900000×</text>
</a>
</g>
</g>
<!-- 1218&#45;&gt;1286 -->
<g id="edge14" class="edge">
<title>1218&#45;&gt;1286</title>
<path fill="none" stroke="#0d267a" stroke-width=".5" d="M133.3906,-189.7648C133.3906,-178.2378 133.3906,-164.7494 133.3906,-152.8542"/>
<polygon fill="#0d267a" stroke="#0d267a" stroke-width=".5" points="134.6157,-152.7176 133.3906,-149.2177 132.1657,-152.7177 134.6157,-152.7176"/>
<text text-anchor="middle" x="152.9951" y="-172.9883" font-family="Arial" font-size="10.00" fill="#0d267a">5.70%</text>
<text text-anchor="middle" x="152.9951" y="-161.4893" font-family="Arial" font-size="10.00" fill="#0d267a">900000×</text>
</g>
<!-- 1252&#45;&gt;676 -->
<g id="edge16" class="edge">
<title>1252&#45;&gt;676</title>
<path fill="none" stroke="#0d4281" stroke-width=".5" d="M990.3906,-94.7707C990.3906,-83.2436 990.3906,-69.7552 990.3906,-57.86"/>
<polygon fill="#0d4281" stroke="#0d4281" stroke-width=".5" points="991.6157,-57.7235 990.3906,-54.2235 989.1657,-57.7236 991.6157,-57.7235"/>
<text text-anchor="middle" x="1009.9951" y="-77.9941" font-family="Arial" font-size="10.00" fill="#0d4281">11.36%</text>
<text text-anchor="middle" x="1009.9951" y="-66.4951" font-family="Arial" font-size="10.00" fill="#0d4281">300000×</text>
</g>
<!-- 1748 -->
<g id="node19" class="node">
<title>1748</title>
<g id="a_node19"><a xlink:title="src/evaluators.py">
<polygon fill="#0c8490" stroke="#0c8490" points="850.0626,-432.9707 722.7186,-432.9707 722.7186,-378.9785 850.0626,-378.9785 850.0626,-432.9707"/>
<text text-anchor="middle" x="786.3906" y="-420.9727" font-family="Arial" font-size="10.00" fill="#ffffff">evaluators:23:&lt;listcomp&gt;</text>
<text text-anchor="middle" x="786.3906" y="-409.4736" font-family="Arial" font-size="10.00" fill="#ffffff">22.68%</text>
<text text-anchor="middle" x="786.3906" y="-397.9746" font-family="Arial" font-size="10.00" fill="#ffffff">(0.32%)</text>
<text text-anchor="middle" x="786.3906" y="-386.4756" font-family="Arial" font-size="10.00" fill="#ffffff">100×</text>
</a>
</g>
</g>
<!-- 1274&#45;&gt;1748 -->
<g id="edge18" class="edge">
<title>1274&#45;&gt;1748</title>
<path fill="none" stroke="#0c8490" stroke-width=".91" d="M798.0625,-536.7491C797.0563,-533.8263 796.1636,-530.8625 795.4746,-527.9668 788.3316,-497.9436 786.3709,-462.6984 786.0107,-437.833"/>
<polygon fill="#0c8490" stroke="#0c8490" stroke-width=".91" points="787.6904,-437.7847 785.9589,-433.003 784.3305,-437.8207 787.6904,-437.7847"/>
<text text-anchor="middle" x="812.3486" y="-519.9668" font-family="Arial" font-size="10.00" fill="#0c8490">22.68%</text>
<text text-anchor="middle" x="812.3486" y="-508.4678" font-family="Arial" font-size="10.00" fill="#0c8490">100×</text>
</g>
<!-- 1831 -->
<g id="node20" class="node">
<title>1831</title>
<g id="a_node20"><a xlink:title="src/evaluators.py">
<polygon fill="#49c208" stroke="#49c208" points="931.0626,-495.9668 803.7186,-495.9668 803.7186,-441.9746 931.0626,-441.9746 931.0626,-495.9668"/>
<text text-anchor="middle" x="867.3906" y="-483.9688" font-family="Arial" font-size="10.00" fill="#ffffff">evaluators:24:&lt;listcomp&gt;</text>
<text text-anchor="middle" x="867.3906" y="-472.4697" font-family="Arial" font-size="10.00" fill="#ffffff">58.69%</text>
<text text-anchor="middle" x="867.3906" y="-460.9707" font-family="Arial" font-size="10.00" fill="#ffffff">(0.23%)</text>
<text text-anchor="middle" x="867.3906" y="-449.4717" font-family="Arial" font-size="10.00" fill="#ffffff">100×</text>
</a>
</g>
</g>
<!-- 1274&#45;&gt;1831 -->
<g id="edge19" class="edge">
<title>1274&#45;&gt;1831</title>
<path fill="none" stroke="#49c208" stroke-width="2.35" d="M826.7245,-536.7433C833.0449,-526.21 840.348,-514.0389 847.0064,-502.9423"/>
<polygon fill="#49c208" stroke="#49c208" stroke-width="2.35" points="849.4034,-504.1854 851.0543,-496.1962 844.7816,-501.4121 849.4034,-504.1854"/>
<text text-anchor="middle" x="862.3486" y="-519.9668" font-family="Arial" font-size="10.00" fill="#49c208">58.69%</text>
<text text-anchor="middle" x="862.3486" y="-508.4678" font-family="Arial" font-size="10.00" fill="#49c208">100×</text>
</g>
<!-- 1748&#45;&gt;88 -->
<g id="edge21" class="edge">
<title>1748&#45;&gt;88</title>
<path fill="none" stroke="#0c8290" stroke-width=".89" d="M778.8728,-378.9673C778.2153,-375.9513 777.6304,-372.9099 777.1816,-369.9766 774.2617,-350.8916 773.0436,-329.2955 772.565,-312.0435"/>
<polygon fill="#0c8290" stroke="#0c8290" stroke-width=".89" points="774.2085,-311.9568 772.4489,-307.2985 770.9195,-312.0373 774.2085,-311.9568"/>
<text text-anchor="middle" x="795.9951" y="-346.4775" font-family="Arial" font-size="10.00" fill="#0c8290">22.36%</text>
<text text-anchor="middle" x="795.9951" y="-334.9785" font-family="Arial" font-size="10.00" fill="#0c8290">100000×</text>
</g>
<!-- 1831&#45;&gt;1196 -->
<g id="edge22" class="edge">
<title>1831&#45;&gt;1196</title>
<path fill="none" stroke="#47c208" stroke-width="2.34" d="M869.9649,-441.9422C871.7402,-423.3031 874.1172,-398.3464 876.0399,-378.1585"/>
<polygon fill="#47c208" stroke="#47c208" stroke-width="2.34" points="878.7065,-378.215 876.7792,-370.397 873.4105,-377.7106 878.7065,-378.215"/>
<text text-anchor="middle" x="894.9951" y="-409.4736" font-family="Arial" font-size="10.00" fill="#47c208">58.46%</text>
<text text-anchor="middle" x="894.9951" y="-397.9746" font-family="Arial" font-size="10.00" fill="#47c208">100000×</text>
</g>
</g>
</svg>
